<?xml version="1.0" encoding="UTF-8"?>
<svg width="30px" height="30px" viewBox="0 0 30 30" version="1.1" xmlns="http://www.w3.org/2000/svg" xmlns:xlink="http://www.w3.org/1999/xlink">
    <!-- Generator: Sketch 50.2 (55047) - http://www.bohemiancoding.com/sketch -->
    <title>background</title>
    <desc>Created with Sketch.</desc>
    <defs></defs>
    <g id="background" stroke="none" stroke-width="1" fill="none" fill-rule="evenodd">
        <g id="background-copy" transform="translate(4.000000, 4.000000)">
            <path d="M3,1 C1.8954305,1 1,1.8954305 1,3 L1,19 C1,20.1045695 1.8954305,21 3,21 L19,21 C20.1045695,21 21,20.1045695 21,19 L21,3 C21,1.8954305 20.1045695,1 19,1 L3,1 Z M1.14360439,0.643192176 L0.807611845,0.97918472 L21.0338094,21.2053822 C20.4991835,21.6986627 19.7847823,22 19,22 L16.1715729,22 L2.66453526e-15,5.82842712 L1.77635684e-15,3 C1.65928881e-15,2.04406701 0.447104898,1.19256097 1.14360439,0.643192176 Z M1.59258972,0.349949031 C2.01230854,0.126576844 2.49137247,1.8697902e-15 3,1.77635684e-15 L6.89949494,1.77635684e-15 L22,15.1005051 L22,19 C22,19.5086275 21.8734232,19.9876915 21.650051,20.4074103 L1.59258972,0.349949031 Z M8.8817842e-16,7.24264069 L14.7573593,22 L9.10050506,22 L1.77635684e-15,12.8994949 L8.8817842e-16,7.24264069 Z M0,14.3137085 L7.6862915,22 L3,22 C1.34314575,22 1.09108455e-15,20.6568542 8.8817842e-16,19 L0,14.3137085 Z M13.9705627,8.8817842e-16 L22,8.02943725 L22,13.6862915 L8.3137085,0 L13.9705627,8.8817842e-16 Z M15.3847763,0 L19,8.8817842e-16 C20.6568542,5.83819232e-16 22,1.34314575 22,3 L22,6.61522369 L15.3847763,0 Z" id="Combined-Shape" fill="#3899EC" fill-rule="nonzero"></path>
            <rect id="Rectangle" stroke="#3899EC" x="0.5" y="0.5" width="21" height="21" rx="3"></rect>
        </g>
    </g>
</svg>